HIERARCHY
ROOT Hips
{
    OFFSET   0.000000   0.000000   0.000000
    CHANNELS 6 Xposition Yposition Zposition Zrotation Xrotation Yrotation
    JOINT Chest
    {
        OFFSET   0.000000   8.007230   0.000000
        CHANNELS 3 Zrotation Xrotation Yrotation
        JOINT Chest2
        {
            OFFSET   0.000000  22.077100   0.000000
            CHANNELS 3 Zrotation Xrotation Yrotation
            JOINT Neck
            {
                OFFSET   0.000000  23.254800  -0.000021
                CHANNELS 3 Zrotation Xrotation Yrotation
                JOINT Head
                {
                    OFFSET   0.000000  14.370000   1.956610
                    CHANNELS 3 Zrotation Xrotation Yrotation
                    End Site
                    {
                        OFFSET   0.000000  19.566000   0.000000
                    }
                }
            }
            JOINT LeftCollar
            {
                OFFSET   3.911900  19.017000  -0.467063
                CHANNELS 3 Zrotation Xrotation Yrotation
                JOINT LeftShoulder
                {
                    OFFSET  10.383700   0.000000   0.000000
                    CHANNELS 3 Zrotation Xrotation Yrotation
                    JOINT LeftElbow
                    {
                        OFFSET  26.662100   0.001529   0.000325
                        CHANNELS 3 Zrotation Xrotation Yrotation
                        JOINT LeftWrist
                        {
                            OFFSET  28.869000  -0.000011  -0.000096
                            CHANNELS 3 Zrotation Xrotation Yrotation
                            JOINT LeftFinger0
                            {
                                OFFSET   2.044650  -2.323460   3.252850
                                CHANNELS 3 Zrotation Xrotation Yrotation
                                JOINT LeftFinger01
                                {
                                    OFFSET   3.088130   0.000000   0.000000
                                    CHANNELS 3 Zrotation Xrotation Yrotation
                                    JOINT LeftFinger02
                                    {
                                        OFFSET   2.639460   0.000000   0.000000
                                        CHANNELS 3 Zrotation Xrotation Yrotation
                                        End Site
                                        {
                                            OFFSET   2.582190   0.000000   0.000000
                                        }
                                    }
                                }
                            }
                            JOINT LeftFinger1
                            {
                                OFFSET   8.364480   0.000000   3.252850
                                CHANNELS 3 Zrotation Xrotation Yrotation
                                JOINT LeftFinger11
                                {
                                    OFFSET   4.646930   0.000000   0.000000
                                    CHANNELS 3 Zrotation Xrotation Yrotation
                                    JOINT LeftFinger12
                                    {
                                        OFFSET   2.323460   0.000000   0.000000
                                        CHANNELS 3 Zrotation Xrotation Yrotation
                                        End Site
                                        {
                                            OFFSET   2.273050   0.000000   0.000000
                                        }
                                    }
                                }
                            }
                            JOINT LeftFinger2
                            {
                                OFFSET   8.364480   0.000016   1.078090
                                CHANNELS 3 Zrotation Xrotation Yrotation
                                JOINT LeftFinger21
                                {
                                    OFFSET   5.111620   0.000000   0.000000
                                    CHANNELS 3 Zrotation Xrotation Yrotation
                                    JOINT LeftFinger22
                                    {
                                        OFFSET   2.788160   0.000017   0.000000
                                        CHANNELS 3 Zrotation Xrotation Yrotation
                                        End Site
                                        {
                                            OFFSET   2.727660   0.000000   0.000000
                                        }
                                    }
                                }
                            }
                            JOINT LeftFinger3
                            {
                                OFFSET   7.899780   0.000015  -1.078090
                                CHANNELS 3 Zrotation Xrotation Yrotation
                                JOINT LeftFinger31
                                {
                                    OFFSET   4.646920   0.000000   0.000000
                                    CHANNELS 3 Zrotation Xrotation Yrotation
                                    JOINT LeftFinger32
                                    {
                                        OFFSET   2.323470   0.000000   0.000000
                                        CHANNELS 3 Zrotation Xrotation Yrotation
                                        End Site
                                        {
                                            OFFSET   2.273050   0.000000   0.000000
                                        }
                                    }
                                }
                            }
                            JOINT LeftFinger4
                            {
                                OFFSET   7.435090   0.000000  -3.252850
                                CHANNELS 3 Zrotation Xrotation Yrotation
                                JOINT LeftFinger41
                                {
                                    OFFSET   3.717550   0.000000   0.000000
                                    CHANNELS 3 Zrotation Xrotation Yrotation
                                    JOINT LeftFinger42
                                    {
                                        OFFSET   1.858760   0.000000   0.000000
                                        CHANNELS 3 Zrotation Xrotation Yrotation
                                        End Site
                                        {
                                            OFFSET   1.818440   0.000000   0.000000
                                        }
                                    }
                                }
                            }
                        }
                    }
                }
            }
            JOINT RightCollar
            {
                OFFSET  -3.911900  19.017000  -0.467062
                CHANNELS 3 Zrotation Xrotation Yrotation
                JOINT RightShoulder
                {
                    OFFSET -10.383700   0.000015   0.000000
                    CHANNELS 3 Zrotation Xrotation Yrotation
                    JOINT RightElbow
                    {
                        OFFSET -26.662100   0.001341   0.000385
                        CHANNELS 3 Zrotation Xrotation Yrotation
                        JOINT RightWrist
                        {
                            OFFSET -28.869000   0.000025  -0.000080
                            CHANNELS 3 Zrotation Xrotation Yrotation
                            JOINT RightFinger0
                            {
                                OFFSET  -2.044650  -2.323490   3.252850
                                CHANNELS 3 Zrotation Xrotation Yrotation
                                JOINT RightFinger01
                                {
                                    OFFSET  -3.088130   0.000000   0.000000
                                    CHANNELS 3 Zrotation Xrotation Yrotation
                                    JOINT RightFinger02
                                    {
                                        OFFSET  -2.639460   0.000000   0.000000
                                        CHANNELS 3 Zrotation Xrotation Yrotation
                                        End Site
                                        {
                                            OFFSET  -2.582190   0.000000   0.000000
                                        }
                                    }
                                }
                            }
                            JOINT RightFinger1
                            {
                                OFFSET  -8.364480   0.000000   3.252850
                                CHANNELS 3 Zrotation Xrotation Yrotation
                                JOINT RightFinger11
                                {
                                    OFFSET  -4.646930   0.000000   0.000000
                                    CHANNELS 3 Zrotation Xrotation Yrotation
                                    JOINT RightFinger12
                                    {
                                        OFFSET  -2.323470   0.000000   0.000000
                                        CHANNELS 3 Zrotation Xrotation Yrotation
                                        End Site
                                        {
                                            OFFSET  -2.273050   0.000000   0.000000
                                        }
                                    }
                                }
                            }
                            JOINT RightFinger2
                            {
                                OFFSET  -8.364480   0.000000   1.078090
                                CHANNELS 3 Zrotation Xrotation Yrotation
                                JOINT RightFinger21
                                {
                                    OFFSET  -5.111610   0.000000   0.000000
                                    CHANNELS 3 Zrotation Xrotation Yrotation
                                    JOINT RightFinger22
                                    {
                                        OFFSET  -2.788160   0.000000   0.000000
                                        CHANNELS 3 Zrotation Xrotation Yrotation
                                        End Site
                                        {
                                            OFFSET  -2.727660   0.000000   0.000000
                                        }
                                    }
                                }
                            }
                            JOINT RightFinger3
                            {
                                OFFSET  -7.899780   0.000000  -1.078090
                                CHANNELS 3 Zrotation Xrotation Yrotation
                                JOINT RightFinger31
                                {
                                    OFFSET  -4.646920   0.000000   0.000000
                                    CHANNELS 3 Zrotation Xrotation Yrotation
                                    JOINT RightFinger32
                                    {
                                        OFFSET  -2.323470   0.000000   0.000000
                                        CHANNELS 3 Zrotation Xrotation Yrotation
                                        End Site
                                        {
                                            OFFSET  -2.273050   0.000000   0.000000
                                        }
                                    }
                                }
                            }
                            JOINT RightFinger4
                            {
                                OFFSET  -7.435090   0.000000  -3.252850
                                CHANNELS 3 Zrotation Xrotation Yrotation
                                JOINT RightFinger41
                                {
                                    OFFSET  -3.717550   0.000000   0.000000
                                    CHANNELS 3 Zrotation Xrotation Yrotation
                                    JOINT RightFinger42
                                    {
                                        OFFSET  -1.858770   0.000000   0.000000
                                        CHANNELS 3 Zrotation Xrotation Yrotation
                                        End Site
                                        {
                                            OFFSET  -1.818440   0.000000   0.000000
                                        }
                                    }
                                }
                            }
                        }
                    }
                }
            }
        }
    }
    JOINT LeftHip
    {
        OFFSET   9.783010   0.000000   0.000000
        CHANNELS 3 Zrotation Xrotation Yrotation
        JOINT LeftKnee
        {
            OFFSET   0.000070 -41.789100   0.000028
            CHANNELS 3 Zrotation Xrotation Yrotation
            JOINT LeftAnkle
            {
                OFFSET   0.000087 -41.133200  -0.000100
                CHANNELS 3 Zrotation Xrotation Yrotation
                JOINT LeftToe
                {
                    OFFSET   0.000000  -6.358960  14.674500
                    CHANNELS 3 Zrotation Xrotation Yrotation
                    End Site
                    {
                        OFFSET   0.000000   0.000000   3.913200
                    }
                }
            }
        }
    }
    JOINT RightHip
    {
        OFFSET  -9.783020   0.000000   0.000000
        CHANNELS 3 Zrotation Xrotation Yrotation
        JOINT RightKnee
        {
            OFFSET   0.000044 -41.789100  -0.000870
            CHANNELS 3 Zrotation Xrotation Yrotation
            JOINT RightAnkle
            {
                OFFSET  -0.000090 -41.133200  -0.000245
                CHANNELS 3 Zrotation Xrotation Yrotation
                JOINT RightToe
                {
                    OFFSET   0.000000  -6.358960  14.674500
                    CHANNELS 3 Zrotation Xrotation Yrotation
                    End Site
                    {
                        OFFSET   0.000000   0.000000   3.913200
                    }
                }
            }
        }
    }
}
MOTION
Frames: 6
Frame Time:   0.016667
 -0.941503  89.876900  -0.619952  -3.159110  -9.202350  -6.231360   1.064800   6.881920  -0.434510   2.206730  13.754300  -1.009900   6.590830   3.904190  -0.450248  10.963000   7.603700 -12.947500  -0.159674   1.169710   2.728370 -29.699800 -13.554000 -74.409500  12.792400 -24.952800 -131.359000  29.783700   1.687100 -12.658900  42.937900  18.309100 -48.315800 -12.469800   0.000970   0.000370  -1.234890   0.000708  -0.001143 -31.245000  10.714100 -17.041200 -26.881300   0.003390  -0.000809 -18.817000   0.000508   0.005273 -29.697400   4.964210  -8.639270 -45.271900   0.000417  -0.007944 -30.151100   0.002013  -0.002378 -17.182900   2.954470  -9.515370 -17.420000   0.000850   0.000836 -11.601800  -0.001657   0.000126  -4.219680   0.741259  -9.938420  -5.684030  -0.008354   0.000227  -3.807820   0.000416   0.001058   8.531600   3.158890   6.508370  66.483800  13.222900   3.691570   1.900290  -5.801620  18.163600 -21.917500 -20.229000   2.832990 -37.125700  28.863600  58.417900  32.158300   0.015919  -0.009928  11.079100   0.023909   0.012041  40.936500   3.349250   3.856030  33.585500   0.139510  -0.099514  23.755500   0.079435  -0.101134  29.939700  -2.977150  -5.152610  45.110100   0.087469   0.081912  30.043500   0.085664  -0.023801  29.854100  -4.996450  -8.628730  45.346800  -0.135208  -0.060157  30.201100  -0.061382   0.059672  43.063900  -6.838110  -7.260760  65.247300   0.004789  -0.001210  43.454700   0.027621  -0.056765   3.122900  10.405800   2.858790  -0.079573   3.694500  12.264700  -6.518530  -6.060840   3.571110  -0.000000   0.000000   0.000000   3.193740   9.611340  -7.885810  -0.523407   2.548410  -7.201930  -7.578870  -0.920839   8.418720   0.000000   0.000000  -0.000000
 -0.902402  89.876000  -0.607529  -3.176800  -9.189280  -6.195350   1.047980   6.881780  -0.429842   2.172130  13.754200  -0.998388   6.690790   3.911040  -0.458447  11.128200   7.607030 -12.770700  -0.189173   1.191040   3.013460 -29.790500 -13.083500 -73.990000  12.707300 -24.474000 -131.609000  30.130700   1.646850 -12.692500  43.101200  18.343600 -47.977800 -12.128300   0.000873   0.000372  -1.064160   0.000733  -0.001147 -29.554500  10.433400 -17.778300 -25.522300   0.003389  -0.000800 -17.865600   0.000442   0.005249 -28.924000   5.009600  -8.984590 -43.612300   0.000388  -0.008484 -29.045700   0.002013  -0.002396 -15.306600   2.719290  -9.902940 -15.542600   0.000953   0.000870 -10.351400  -0.001621   0.000144  -2.937860   0.522335 -10.264600  -3.813730  -0.008401   0.000224  -2.539940   0.000456   0.001028   8.545370   3.083040   6.627060  66.422700  13.270100   3.776070   1.785680  -5.740320  18.394100 -22.126500 -20.331900   2.702100 -37.202600  28.937600  58.447900  32.093600   0.012646  -0.007811  11.046800   0.023957   0.014053  40.957200   3.402000   3.911470  33.605000   0.131800  -0.131471  23.773300   0.061687  -0.128153  29.958500  -2.973700  -5.143440  45.138000   0.072547   0.073549  30.062100   0.076425  -0.013205  29.808200  -4.993400  -8.639250  45.278200  -0.199187  -0.070108  30.155600  -0.067086   0.086675  42.984500  -6.833610  -7.275660  65.129100   0.040026   0.007496  43.376000   0.037874  -0.068452   3.130530  10.424500   2.858260  -0.088674   3.626850  12.245100  -6.487590  -6.038120   3.562190   0.000000   0.000000  -0.000000   3.194090   9.611290  -7.880770  -0.523297   2.550510  -7.208900  -7.571710  -0.907475   8.386560   0.000000   0.000000  -0.000000
 -0.863491  89.875300  -0.593902  -3.197810  -9.178800  -6.164630   1.032850   6.881600  -0.425606   2.141010  13.754200  -0.987949   6.778790   3.928880  -0.466682  11.275100   7.630910 -12.621300  -0.223394   1.225330   3.293850 -29.936700 -12.571100 -73.605100  12.664800 -23.930400 -131.839000  30.442400   1.679320 -12.746600  43.240400  18.328800 -47.597600 -11.749200   0.000771   0.000380  -0.874641   0.000754  -0.001140 -26.731000   9.938800 -19.009400 -23.237400   0.003394  -0.000789 -16.266100   0.000388   0.005223 -28.512700   5.108060  -9.306860 -41.536600   0.000369  -0.009211 -27.663300   0.002010  -0.002416 -11.868000   2.150030 -10.355000 -12.068800   0.001058   0.000903  -8.037840  -0.001575   0.000164   0.371980  -0.084550 -10.555800  -1.453460  -0.003602   0.000223  -0.767764   0.000496   0.001012   8.564820   3.008720   6.736630  66.343500  13.334600   3.873870   1.680710  -5.718710  18.627800 -22.315400 -20.417000   2.603630 -37.295300  29.037800  58.470400  32.028700   0.018181  -0.011263  11.014400   0.023896   0.016274  40.952500   3.575380   4.107960  33.611600   0.097693  -0.152982  23.779400   0.021940  -0.134947  29.964200  -3.022430  -5.226590  45.152200   0.055487   0.091177  30.071500   0.078149   0.011553  29.752900  -4.989600  -8.652050  45.195700  -0.184857  -0.056994  30.100600  -0.050837   0.078878  42.904900  -6.831130  -7.291850  65.011100   0.114777   0.061626  43.297600   0.078555  -0.072137   3.140070  10.448400   2.854980  -0.095741   3.559840  12.224100  -6.457350  -6.018940   3.562320   0.000000   0.000000  -0.000000   3.198920   9.613270  -7.880520  -0.523234   2.552470  -7.216780  -7.565760  -0.895861   8.364450  -0.000000   0.000000   0.000000
 -0.825273  89.874500  -0.580022  -3.221080  -9.174000  -6.137460   1.019690   6.881540  -0.421182   2.113870  13.754200  -0.977377   6.855150   3.950210  -0.474539  11.403900   7.667130 -12.500800  -0.264786   1.280430   3.550490 -30.098000 -12.053500 -73.241900  12.644200 -23.353300 -132.037000  30.753400   1.733290 -12.811300  43.346900  18.258800 -47.193600 -11.322400   0.000654   0.000387  -0.661220   0.000775  -0.001129 -24.154500   9.472250 -20.137900 -21.142300   0.003403  -0.000775 -14.799600   0.000335   0.005197 -28.251600   5.237680  -9.640710 -39.114800   0.000351  -0.009963 -26.050400   0.002004  -0.002435  -8.849640   1.703710 -10.825000  -9.010970   0.001161   0.000937  -6.001320  -0.001527   0.000189   3.841330  -0.747048 -10.900500  -0.000000   0.001389   0.000223   0.355984   0.000540   0.000997   8.587780   2.934270   6.839880  66.258000  13.394900   3.976100   1.574260  -5.706360  18.856000 -22.512900 -20.493000   2.543090 -37.374600  29.144900  58.467900  31.992300   0.023715  -0.014714  10.996200   0.023674   0.017573  40.949600   3.703480   4.256990  33.617100   0.056854  -0.161969  23.784400  -0.017251  -0.135918  29.964000  -3.099490  -5.358140  45.163400   0.039397   0.108805  30.078800   0.079872   0.034078  29.691100  -4.985340  -8.666350  45.103500  -0.143555  -0.034584  30.039000  -0.025785   0.059383  42.823000  -6.830190  -7.309130  64.889600   0.188049   0.138518  43.217000   0.130575  -0.072664   3.150000  10.475000   2.848360  -0.101362   3.496870  12.200500  -6.427120  -6.003660   3.564070   0.000000   0.000000   0.000000   3.206370   9.617510  -7.880310  -0.522944   2.556740  -7.226720  -7.563590  -0.886024   8.347950  -0.000000   0.000000   0.000000
 -0.787911  89.873700  -0.566000  -3.244300  -9.174710  -6.110800   1.008550   6.881570  -0.413366   2.090390  13.754400  -0.960518   6.916990   3.967140  -0.480879  11.507700   7.693730 -12.433400  -0.318268   1.379100   3.762290 -30.283400 -11.576500 -72.905000  12.617400 -22.753600 -132.236000  31.062000   1.786250 -12.884200  43.387400  18.077200 -46.761400 -10.854600   0.000506   0.000277  -0.427333   0.000799  -0.001124 -23.388300   9.316190 -20.477100 -20.516300   0.003412  -0.000760 -14.361400   0.000277   0.005169 -28.060900   5.399490 -10.011100 -36.267800   0.000325  -0.010695 -24.154300   0.001998  -0.002448  -8.206790   1.673420 -11.253900  -8.370360   0.001257   0.000972  -5.574670  -0.001486   0.000226   5.752230  -1.181810 -11.534300  -0.003250   0.001581   0.000210   0.175824   0.000594   0.000973   8.610510   2.857990   6.936160  66.183000  13.428400   4.070280   1.462310  -5.691450  19.069100 -22.759100 -20.554700   2.537890 -37.432800  29.250200  58.398100  32.011100   0.022958  -0.014278  11.005600   0.023265   0.017404  40.966700   3.631430   4.172560  33.626200   0.037732  -0.151538  23.792600  -0.032495  -0.119307  29.964300  -3.153070  -5.450110  45.171500   0.031377   0.108281  30.084200   0.077767   0.040350  29.614700  -4.980140  -8.683950  44.989500  -0.049998  -0.010518  29.963000  -0.006821   0.020389  42.725100  -6.829930  -7.329980  64.744400   0.216647   0.209040  43.120600   0.184628  -0.065517   3.157070  10.499500   2.835500  -0.104663   3.444320  12.170800  -6.394780  -5.994630   3.579010   0.000000   0.000000   0.000000   3.213430   9.623580  -7.878470  -0.521596   2.566180  -7.241020  -7.564950  -0.878749   8.334160   0.000000   0.000000   0.000000
 -0.751544  89.873100  -0.552801  -3.268440  -9.175850  -6.087100   0.999531   6.881780  -0.407532   2.071410  13.755100  -0.947312   6.964740   3.985840  -0.486483  11.588400   7.725100 -12.352600  -0.383699   1.498290   3.919330 -30.410500 -11.126000 -72.552900  12.599300 -22.180500 -132.392000  31.446100   1.817550 -12.967600  43.390800  17.844400 -46.339100 -10.422500   0.000350   0.000104  -0.211242   0.000823  -0.001119 -23.112800   9.234850 -20.600000 -20.284700   0.003422  -0.000744 -14.199300   0.000220   0.005140 -27.795800   5.553040 -10.409900 -33.331200   0.000296  -0.011099 -22.198500   0.001992  -0.002456  -7.853570   1.643140 -11.678700  -8.017450   0.001349   0.001007  -5.339630  -0.001446   0.000269   6.963810  -1.486530 -11.957100  -0.006500   0.001644   0.000190  -0.004336   0.000652   0.000945   8.639030   2.785460   7.023580  66.107800  13.453500   4.176380   1.346730  -5.673220  19.261200 -23.022000 -20.614900   2.532660 -37.486100  29.342600  58.313700  32.039900   0.022200  -0.013842  11.019900   0.022671   0.016218  40.992200   3.526630   4.048620  33.641100   0.025087  -0.125208  23.806300  -0.035581  -0.088432  29.969100  -3.200590  -5.530590  45.185700   0.024309   0.104616  30.093700   0.067199   0.041245  29.543300  -4.975320  -8.700370  44.882900   0.016588   0.004254  29.892000   0.003339  -0.006907  42.636700  -6.829740  -7.349060  64.613600   0.222443   0.249332  43.033600   0.216370  -0.047805   3.163690  10.524700   2.826720  -0.108278   3.396560  12.136700  -6.360820  -5.988740   3.602870  -0.000000   0.000000   0.000000   3.222100   9.629550  -7.872690  -0.520814   2.580430  -7.256880  -7.566640  -0.872855   8.319710  -0.000000   0.000000   0.000000
